<?xml version="1.0" standalone="no"?>
<!DOCTYPE svg PUBLIC "-//W3C//DTD SVG 1.1//EN"
  "http://www.w3.org/Graphics/SVG/1.1/DTD/svg11.dtd">
<svg width="100%" height="100%" viewBox="0 0 500 500"
     xmlns="http://www.w3.org/2000/svg" version="1.1">
     <path d="
       M 0 0 L 1 0 L 1 1 L 0 1 z
      
        M 0.65625  0.140625 L 0.6875 0.140625
      
        M 0.5  0.0 L 0.5625 0.09375
      
        M 0.953125  0.3125 L 1.0 0.375
      
        M 0.9375  0.40625 L 0.84375 0.359375
      
        M 0.59375  0.484375 L 0.5 0.5
      
        M 0.75  0.125 L 0.84375 0.09375
      
        M 0.578125  0.015625 L 0.625 0.015625
      
        M 0.671875  0.34375 L 0.640625 0.34375
      
        M 0.671875  0.3125 L 0.640625 0.3125
      
        M 0.984375  0.40625 L 1.0 0.5
      
        M 0.5625  0.25 L 0.546875 0.1875
      
        M 0.515625  0.09375 L 0.5 0.0
      
        M 0.5625  0.4375 L 0.5625 0.390625
      
        M 0.9375  0.4375 L 0.890625 0.4375
      
        M 0.90625  0.34375 L 0.90625 0.390625
      
        M 0.640625  0.015625 L 0.625 0.0
      
        M 0.75  0.46875 L 0.6875 0.5
      
        M 0.71875  0.25 L 0.6875 0.171875
      
        M 1.0  0.1875 L 0.96875 0.171875
      
        M 0.875  0.25 L 0.90625 0.34375
      
        M 0.890625  0.4375 L 0.90625 0.40625
      
        M 0.640625  0.3125 L 0.625 0.25
      
        M 0.8125  0.328125 L 0.8125 0.359375
      
        M 0.9375  0.109375 L 0.90625 0.09375
      
        M 0.75  0.03125 L 0.8125 0.0
      
        M 0.90625  0.25 L 0.921875 0.140625
      
        M 0.75  0.34375 L 0.671875 0.375
      
        M 0.6875  0.453125 L 0.625 0.5
      
        M 1.0  0.15625 L 0.984375 0.140625
      
        M 0.984375  0.125 L 0.953125 0.109375
      
        M 0.65625  0.25 L 0.625 0.171875
      
        M 0.671875  0.375 L 0.625 0.375
      
        M 0.9375  0.0625 L 0.9375 0.109375
      
        M 0.75  0.09375 L 0.640625 0.078125
      
        M 0.609375  0.046875 L 0.578125 0.015625
      
        M 0.8125  0.5 L 0.828125 0.46875
      
        M 0.9375  0.25 L 0.953125 0.203125
      
        M 0.5  0.34375 L 0.515625 0.359375
      
        M 0.5625  0.0625 L 0.609375 0.0625
      
        M 0.8125  0.046875 L 0.875 0.0
      
        M 0.953125  0.25 L 1.0 0.34375
      
        M 0.75  0.015625 L 0.78125 0.0
      
        M 0.5  0.3125 L 0.53125 0.328125
      
        M 0.90625  0.40625 L 0.9375 0.4375
      
        M 1.0  0.21875 L 0.953125 0.203125
      
        M 0.921875  0.484375 L 0.875 0.484375
      
        M 0.71875  0.0 L 0.703125 0.046875
      
        M 0.65625  0.40625 L 0.609375 0.40625
      
        M 0.703125  0.046875 L 0.640625 0.015625
      
        M 0.53125  0.25 L 0.5 0.1875
      
        M 0.59375  0.4375 L 0.640625 0.34375
      
        M 0.5625  0.25 L 0.546875 0.296875
      
        M 0.75  0.15625 L 0.828125 0.125
      
        M 0.75  0.375 L 0.65625 0.40625
      
        M 0.515625  0.375 L 0.546875 0.390625
      
        M 0.8125  0.359375 L 0.75 0.375
      
        M 0.59375  0.09375 L 0.5625 0.0625
      
        M 0.75  0.09375 L 0.921875 0.03125
      
        M 0.640625  0.34375 L 0.640625 0.3125
      
        M 0.546875  0.1875 L 0.5 0.125
      
        M 0.75  0.28125 L 0.671875 0.3125
      
        M 0.546875  0.390625 L 0.515625 0.421875
      
        M 0.546875  0.296875 L 0.515625 0.359375
      
        M 0.796875  0.453125 L 0.859375 0.484375
      
        M 0.625  0.015625 L 0.609375 0.046875
      
        M 0.75  0.21875 L 0.828125 0.1875
      
        M 0.5  0.5 L 0.59375 0.4375
      
        M 0.625  0.171875 L 0.625 0.125
      
        M 0.75  0.3125 L 0.671875 0.34375
      
        M 0.84375  0.328125 L 0.84375 0.359375
      
        M 0.546875  0.25 L 0.5 0.15625
      
        M 1.0  0.0 L 0.90625 0.0625
      
        M 0.5  0.28125 L 0.546875 0.296875
      
        M 0.515625  0.421875 L 0.515625 0.375
      
        M 0.84375  0.09375 L 0.890625 0.09375
      
        M 0.6875  0.0 L 0.671875 0.03125
      
        M 0.75  0.40625 L 0.578125 0.46875
      
        M 0.8125  0.25 L 0.84375 0.328125
      
        M 0.75  0.4375 L 0.6875 0.453125
      
        M 0.5625  0.390625 L 0.59375 0.40625
      
        M 0.90625  0.0625 L 0.859375 0.15625
      
        M 0.953125  0.109375 L 0.984375 0.078125
      
        M 0.65625  0.0 L 0.640625 0.015625
      
        M 0.5  0.125 L 0.515625 0.09375
      
        M 0.84375  0.25 L 0.875 0.328125
      
        M 0.75  0.046875 L 0.84375 0.0
      
        M 0.59375  0.15625 L 0.59375 0.109375
      
        M 0.59375  0.25 L 0.53125 0.078125
      
        M 0.59375  0.25 L 0.578125 0.359375
      
        M 0.6875  0.171875 L 0.6875 0.140625
      
        M 0.6875  0.25 L 0.65625 0.171875
      
        M 0.75  0.4375 L 0.796875 0.453125
      
        M 0.890625  0.453125 L 0.921875 0.484375
      
        M 0.84375  0.5 L 0.859375 0.484375
      
        M 0.984375  0.078125 L 0.984375 0.125
      
        M 0.75  0.484375 L 0.71875 0.5
      
        M 0.75  0.40625 L 0.859375 0.421875
      
        M 0.828125  0.125 L 0.875 0.125
      
        M 0.65625  0.171875 L 0.65625 0.140625
      
        M 0.828125  0.1875 L 0.859375 0.1875
      
        M 1.0  0.5 L 0.9375 0.40625
      
        M 0.90625  0.25 L 0.96875 0.421875
      
        M 0.515625  0.25 L 0.5 0.21875
      
        M 0.59375  0.40625 L 0.5625 0.4375
      
        M 0.78125  0.5 L 0.796875 0.453125
      
        M 0.984375  0.140625 L 1.0 0.125
      
        M 0.875  0.328125 L 0.875 0.375
      
        M 1.0  0.375 L 0.984375 0.40625
      
        M 0.875  0.484375 L 0.890625 0.453125
      
        M 0.6875  0.140625 L 0.75 0.125
      
        M 0.859375  0.15625 L 0.859375 0.1875
      
        M 0.859375  0.1875 L 0.875 0.25
      
        M 0.75  0.1875 L 0.828125 0.15625
      
        M 0.96875  0.25 L 1.0 0.3125
      
        M 0.515625  0.359375 L 0.5 0.375
      
        M 0.90625  0.015625 L 1.0 0.0
      
        M 0.625  0.25 L 0.59375 0.15625
      
        M 0.625  0.5 L 0.59375 0.484375
      
        M 0.9375  0.25 L 0.953125 0.3125
      
        M 0.609375  0.0625 L 0.59375 0.09375
      
        M 0.75  0.0625 L 0.8125 0.046875
      
        M 0.75  0.0625 L 0.703125 0.046875
      
        M 0.859375  0.484375 L 0.875 0.5
      
        M 0.953125  0.203125 L 0.984375 0.140625
      
        M 0.875  0.0 L 0.90625 0.015625
      
        M 0.828125  0.15625 L 0.859375 0.15625
      
        M 0.84375  0.359375 L 0.8125 0.359375
      
        M 0.90625  0.09375 L 0.9375 0.0625
      
        M 0.75  0.453125 L 0.65625 0.5
      
        M 0.5625  0.09375 L 0.65625 0.140625
      
        M 0.78125  0.25 L 0.8125 0.328125
      
        M 0.984375  0.25 L 1.0 0.28125
      
      " fill="none" stroke="black" stroke-width="0.001" transform="translate(0 500) scale(500 -500)" />
</svg>
