<?xml version="1.0" standalone="no"?>
<!DOCTYPE svg PUBLIC "-//W3C//DTD SVG 1.1//EN"
  "http://www.w3.org/Graphics/SVG/1.1/DTD/svg11.dtd">
<svg width="100%" height="100%" viewBox="0 0 500 500"
     xmlns="http://www.w3.org/2000/svg" version="1.1">
     <path d="
       M 0 0 L 1 0 L 1 1 L 0 1 z
      
        M 0.0  0.75 L 0.0625 0.875
      
        M 0.0  0.5 L 0.125 0.75
      
        M 0.0  0.25 L 0.3125 0.625
      
        M 0.0  0.0 L 0.5 0.5
      
        M 0.0625  0.0625 L 0.25 0.0
      
        M 0.125  0.125 L 0.5 0.0
      
        M 0.1875  0.1875 L 0.5 0.125
      
        M 0.5  0.125 L 0.75 0.0
      
        M 0.3125  0.3125 L 0.75 0.1875
      
        M 0.75  0.1875 L 1.0 0.0
      
        M 0.0  1.0 L 0.125 0.75
      
        M 0.125  0.75 L 0.5 0.5
      
        M 0.5  0.5 L 0.875 0.375
      
        M 0.875  0.375 L 1.0 0.25
      
        M 0.375  1.0 L 0.6875 0.625
      
        M 0.6875  0.625 L 1.0 0.375
      
        M 0.6875  1.0 L 0.75 0.75
      
        M 0.75  0.75 L 1.0 0.5
      
        M 0.75  0.75 L 1.0 1.0
      
        M 0.8125  0.8125 L 1.0 0.625
      
        M 0.875  0.875 L 1.0 0.75
      
        M 0.9375  0.9375 L 1.0 0.875
      
      " fill="none" stroke="black" stroke-width="0.001" transform="translate(0 500) scale(500 -500)" />
</svg>
