<?xml version="1.0" standalone="no"?>
<!DOCTYPE svg PUBLIC "-//W3C//DTD SVG 1.1//EN"
  "http://www.w3.org/Graphics/SVG/1.1/DTD/svg11.dtd">
<svg width="100%" height="100%" viewBox="0 0 500 500"
     xmlns="http://www.w3.org/2000/svg" version="1.1">
     <path d="
       M 0 0 L 1 0 L 1 1 L 0 1 z
      
        M 0.0  0.0 L 0.25 0.125
      
        M 0.25  0.125 L 0.5 0.125
      
        M 0.5  0.125 L 1.0 0.0
      
        M 0.0  0.25 L 0.125 0.0625
      
        M 0.0  0.375 L 0.4375 0.25
      
        M 0.0  0.5 L 0.5 0.375
      
        M 0.0  0.625 L 0.4375 0.5
      
        M 0.0  0.75 L 0.4375 0.625
      
        M 0.0  0.875 L 0.4375 0.8125
      
        M 0.5  1.0 L 0.4375 0.8125
      
        M 0.4375  0.8125 L 0.4375 0.5
      
        M 0.4375  0.5 L 0.5 0.375
      
        M 0.5  0.375 L 0.625 0.25
      
        M 0.625  0.25 L 1.0 0.0
      
        M 0.625  1.0 L 0.6875 0.625
      
        M 0.625  0.375 L 0.75 0.25
      
        M 0.75  0.25 L 0.75 0.4375
      
        M 0.75  0.4375 L 0.625 0.375
      
        M 0.8125  0.4375 L 0.9375 0.3125
      
        M 0.9375  0.3125 L 0.9375 0.5
      
        M 0.9375  0.5 L 0.8125 0.4375
      
        M 0.75  1.0 L 0.8125 0.8125
      
        M 0.8125  0.8125 L 0.9375 0.5625
      
        M 0.9375  0.5625 L 1.0 0.5
      
        M 0.8125  0.8125 L 1.0 0.875
      
        M 0.875  0.6875 L 1.0 0.75
      
        M 0.9375  0.5625 L 1.0 0.625
      
      " fill="none" stroke="black" stroke-width="0.001" transform="translate(0 500) scale(500 -500)" />
</svg>
