<?xml version="1.0" standalone="no"?>
<!DOCTYPE svg PUBLIC "-//W3C//DTD SVG 1.1//EN"
  "http://www.w3.org/Graphics/SVG/1.1/DTD/svg11.dtd">
<svg width="100%" height="100%" viewBox="0 0 500 500"
     xmlns="http://www.w3.org/2000/svg" version="1.1">
     <path d="
       M 0 0 L 1 0 L 1 1 L 0 1 z
      
        M 0.984375  0.140625 L 1.0 0.15625
      
        M 0.9765625  0.6015625 L 0.9921875 0.5703125
      
        M 0.25  0.46875 L 0.1875 0.5
      
        M 0.0078125  0.7109375 L 0.0078125 0.6875
      
        M 0.0  0.15625 L 0.03125 0.1875
      
        M 0.953125  0.203125 L 1.0 0.21875
      
        M 0.921875  0.6796875 L 0.90625 0.6796875
      
        M 0.515625  0.015625 L 0.5625 0.0
      
        M 0.671875  0.25 L 0.65625 0.3125
      
        M 0.03125  0.5625 L 0.046875 0.625
      
        M 0.453125  0.625 L 0.484375 0.7109375
      
        M 0.65625  0.5 L 0.6875 0.46875
      
        M 0.3515625  0.6015625 L 0.375 0.578125
      
        M 0.3125  0.0 L 0.28125 0.015625
      
        M 0.953125  0.3125 L 1.0 0.375
      
        M 0.171875  0.625 L 0.1875 0.6796875
      
        M 0.375  0.25 L 0.40625 0.375
      
        M 0.28125  0.7265625 L 0.25 0.75
      
        M 0.625  0.5 L 0.65625 0.515625
      
        M 0.9375  0.40625 L 0.84375 0.359375
      
        M 0.53125  0.03125 L 0.625 0.0
      
        M 0.4765625  0.6015625 L 0.5 0.609375
      
        M 0.5  0.75 L 0.546875 0.71875
      
        M 0.125  0.5 L 0.15625 0.515625
      
        M 0.3046875  0.671875 L 0.28125 0.703125
      
        M 0.625  0.703125 L 0.671875 0.7109375
      
        M 0.53125  0.5625 L 0.546875 0.625
      
        M 0.5  0.0 L 0.625 0.125
      
        M 0.65625  0.59375 L 0.6875 0.625
      
        M 0.28125  0.703125 L 0.28125 0.6640625
      
        M 0.5625  0.75 L 0.546875 0.7421875
      
        M 0.3125  0.6875 L 0.34375 0.6953125
      
        M 0.234375  0.65625 L 0.234375 0.6875
      
        M 0.25  0.171875 L 0.1875 0.15625
      
        M 0.6875  0.4375 L 0.75 0.4375
      
        M 0.140625  0.1875 L 0.15625 0.25
      
        M 0.25  0.40625 L 0.078125 0.46875
      
        M 0.984375  0.40625 L 1.0 0.5
      
        M 0.75  0.09375 L 0.859375 0.0625
      
        M 0.8125  0.6875 L 0.78125 0.7265625
      
        M 0.53125  0.1875 L 0.625 0.125
      
        M 0.8125  0.71875 L 0.875 0.703125
      
        M 0.96875  0.5546875 L 0.953125 0.546875
      
        M 0.25  0.171875 L 0.3125 0.1875
      
        M 0.375  0.59375 L 0.4296875 0.578125
      
        M 0.453125  0.1875 L 0.5 0.25
      
        M 0.59375  0.5234375 L 0.5625 0.5
      
        M 0.34375  0.75 L 0.3515625 0.7421875
      
        M 0.9609375  0.7421875 L 0.9375 0.7421875
      
        M 0.09375  0.578125 L 0.0625 0.5625
      
        M 0.40625  0.625 L 0.421875 0.6640625
      
        M 0.9375  0.4375 L 0.890625 0.4375
      
        M 0.3125  0.5625 L 0.359375 0.546875
      
        M 0.5  0.5 L 0.5078125 0.546875
      
        M 0.953125  0.53125 L 1.0 0.5
      
        M 0.90625  0.34375 L 0.90625 0.390625
      
        M 0.859375  0.125 L 0.875 0.09375
      
        M 0.921875  0.625 L 0.9375 0.6640625
      
        M 0.40625  0.375 L 0.4375 0.40625
      
        M 0.90625  0.515625 L 0.9375 0.515625
      
        M 0.625  0.671875 L 0.5859375 0.6875
      
        M 0.28125  0.25 L 0.296875 0.359375
      
        M 0.90625  0.625 L 0.921875 0.6640625
      
        M 0.4921875  0.703125 L 0.5 0.75
      
        M 0.125  0.71875 L 0.09375 0.7265625
      
        M 0.28125  0.65625 L 0.296875 0.625
      
        M 0.84375  0.59375 L 0.875 0.625
      
        M 0.921875  0.6640625 L 0.921875 0.6796875
      
        M 0.0625  0.390625 L 0.09375 0.40625
      
        M 0.125  0.703125 L 0.0390625 0.734375
      
        M 0.0  0.0 L 0.015625 0.09375
      
        M 0.2890625  0.5390625 L 0.34375 0.5234375
      
        M 0.1015625  0.5 L 0.09375 0.5234375
      
        M 0.546875  0.53125 L 0.5859375 0.53125
      
        M 0.234375  0.515625 L 0.25 0.5625
      
        M 0.125  0.671875 L 0.0859375 0.6875
      
        M 0.8359375  0.625 L 0.828125 0.65625
      
        M 0.0  0.59375 L 0.0078125 0.6015625
      
        M 0.5625  0.40625 L 0.5625 0.328125
      
        M 0.9375  0.546875 L 0.953125 0.53125
      
        M 0.078125  0.703125 L 0.0546875 0.703125
      
        M 0.015625  0.09375 L 0.0 0.125
      
        M 0.171875  0.0625 L 0.15625 0.109375
      
        M 0.4921875  0.5703125 L 0.5 0.578125
      
        M 0.703125  0.328125 L 0.75 0.3125
      
        M 0.4921875  0.5390625 L 0.4921875 0.5625
      
        M 0.28125  0.21875 L 0.3125 0.25
      
        M 0.875  0.25 L 0.90625 0.34375
      
        M 0.0  0.671875 L 0.0078125 0.6796875
      
        M 0.890625  0.4375 L 0.90625 0.40625
      
        M 0.375  0.5625 L 0.4375 0.546875
      
        M 0.0625  0.4375 L 0.0625 0.390625
      
        M 0.59375  0.53125 L 0.625 0.546875
      
        M 0.3125  0.03125 L 0.375 0.125
      
        M 0.1875  0.5 L 0.15625 0.515625
      
        M 0.8125  0.515625 L 0.84375 0.5
      
        M 0.953125  0.546875 L 0.96875 0.53125
      
        M 0.515625  0.59375 L 0.5234375 0.625
      
        M 0.8125  0.328125 L 0.8125 0.359375
      
        M 0.9375  0.109375 L 0.90625 0.09375
      
        M 0.125  0.0 L 0.203125 0.0
      
        M 0.125  0.7421875 L 0.109375 0.75
      
        M 0.15625  0.59375 L 0.125 0.625
      
        M 0.046875  0.703125 L 0.03125 0.71875
      
        M 0.390625  0.625 L 0.40625 0.6640625
      
        M 0.109375  0.609375 L 0.109375 0.625
      
        M 0.0078125  0.6015625 L 0.015625 0.625
      
        M 0.5546875  0.59375 L 0.5625 0.625
      
        M 0.2109375  0.5390625 L 0.2265625 0.59375
      
        M 0.203125  0.609375 L 0.21875 0.625
      
        M 0.34375  0.59375 L 0.375 0.5625
      
        M 0.9453125  0.7265625 L 0.9609375 0.7421875
      
        M 0.71875  0.625 L 0.7421875 0.640625
      
        M 0.09375  0.0625 L 0.171875 0.0625
      
        M 0.8984375  0.7265625 L 0.9296875 0.7421875
      
        M 0.5  0.609375 L 0.5078125 0.625
      
        M 0.171875  0.34375 L 0.140625 0.34375
      
        M 0.90625  0.75 L 0.9140625 0.734375
      
        M 0.6015625  0.5 L 0.59375 0.5234375
      
        M 0.046875  0.296875 L 0.015625 0.359375
      
        M 0.7734375  0.5234375 L 0.8125 0.515625
      
        M 0.640625  0.625 L 0.6484375 0.6796875
      
        M 0.7578125  0.5078125 L 0.78125 0.5
      
        M 0.125  0.6875 L 0.1484375 0.6796875
      
        M 0.390625  0.4375 L 0.40625 0.40625
      
        M 0.328125  0.65625 L 0.3515625 0.6640625
      
        M 0.5078125  0.6796875 L 0.5 0.6875
      
        M 0.5  0.0 L 0.375 0.125
      
        M 0.84375  0.75 L 0.8515625 0.7421875
      
        M 0.125  0.5859375 L 0.15625 0.59375
      
        M 0.984375  0.125 L 0.953125 0.109375
      
        M 0.375  0.0 L 0.3125 0.03125
      
        M 0.625  0.546875 L 0.671875 0.5859375
      
        M 0.9921875  0.625 L 1.0 0.640625
      
        M 0.0703125  0.671875 L 0.0703125 0.65625
      
        M 0.484375  0.625 L 0.5 0.65625
      
        M 0.9375  0.515625 L 1.0 0.5
      
        M 0.2109375  0.7421875 L 0.1875 0.7421875
      
        M 0.203125  0.703125 L 0.21875 0.71875
      
        M 0.7109375  0.5390625 L 0.7265625 0.59375
      
        M 0.46875  0.71875 L 0.4453125 0.71875
      
        M 0.5859375  0.53125 L 0.578125 0.5546875
      
        M 0.296875  0.203125 L 0.34375 0.25
      
        M 0.46875  0.625 L 0.4765625 0.6015625
      
        M 0.375  0.609375 L 0.4296875 0.6015625
      
        M 0.015625  0.375 L 0.046875 0.390625
      
        M 0.9375  0.0625 L 0.9375 0.109375
      
        M 0.875  0.09375 L 0.90625 0.0625
      
        M 0.140625  0.3125 L 0.125 0.25
      
        M 0.6953125  0.7265625 L 0.7109375 0.7421875
      
        M 0.453125  0.53125 L 0.5 0.5
      
        M 0.609375  0.609375 L 0.609375 0.625
      
        M 0.21875  0.625 L 0.2421875 0.640625
      
        M 0.09375  0.25 L 0.078125 0.359375
      
        M 0.75  0.6875 L 0.75 0.6484375
      
        M 0.6953125  0.71875 L 0.703125 0.703125
      
        M 0.0  0.5625 L 0.03125 0.59375
      
        M 0.765625  0.59375 L 0.8125 0.5625
      
        M 0.15625  0.109375 L 0.09375 0.0625
      
        M 0.1796875  0.7421875 L 0.1875 0.75
      
        M 0.578125  0.5703125 L 0.5703125 0.59375
      
        M 0.5  0.25 L 0.46875 0.3125
      
        M 0.546875  0.703125 L 0.53125 0.71875
      
        M 0.734375  0.234375 L 0.75 0.21875
      
        M 0.8125  0.5 L 0.828125 0.46875
      
        M 0.90625  0.25 L 0.921875 0.15625
      
        M 0.2421875  0.5078125 L 0.25 0.53125
      
        M 0.9375  0.25 L 0.953125 0.203125
      
        M 0.6875  0.1875 L 0.75 0.25
      
        M 0.25  0.6484375 L 0.2734375 0.65625
      
        M 0.34375  0.25 L 0.375 0.359375
      
        M 0.09375  0.7265625 L 0.0625 0.75
      
        M 0.4375  0.625 L 0.453125 0.671875
      
        M 0.9921875  0.5625 L 0.9765625 0.5546875
      
        M 0.546875  0.046875 L 0.625 0.03125
      
        M 0.25  0.375 L 0.15625 0.40625
      
        M 0.4765625  0.6015625 L 0.4921875 0.5703125
      
        M 0.6875  0.390625 L 0.75 0.375
      
        M 0.65625  0.3125 L 0.625 0.375
      
        M 0.7109375  0.7421875 L 0.6875 0.7421875
      
        M 0.4375  0.7421875 L 0.4453125 0.7265625
      
        M 0.875  0.53125 L 0.890625 0.5078125
      
        M 0.0078125  0.6875 L 0.0234375 0.6953125
      
        M 0.046875  0.0625 L 0.0 0.0
      
        M 0.5703125  0.65625 L 0.5625 0.625
      
        M 0.1953125  0.7265625 L 0.2109375 0.7421875
      
        M 0.25  0.625 L 0.265625 0.59375
      
        M 0.75  0.53125 L 0.7890625 0.578125
      
        M 0.375  0.484375 L 0.390625 0.453125
      
        M 0.390625  0.453125 L 0.421875 0.484375
      
        M 0.625  0.4375 L 0.75 0.40625
      
        M 0.25  0.09375 L 0.34375 0.171875
      
        M 0.953125  0.25 L 1.0 0.34375
      
        M 0.40625  0.6640625 L 0.40625 0.6796875
      
        M 0.4765625  0.625 L 0.5 0.671875
      
        M 0.046875  0.53125 L 0.0859375 0.53125
      
        M 0.5859375  0.6875 L 0.5625 0.6875
      
        M 0.75  0.0625 L 0.78125 0.015625
      
        M 0.96875  0.53125 L 0.96875 0.5546875
      
        M 0.625  0.5 L 0.6875 0.4375
      
        M 0.953125  0.671875 L 0.953125 0.6953125
      
        M 0.640625  0.34375 L 0.6875 0.359375
      
        M 0.96875  0.171875 L 1.0 0.1875
      
        M 0.3359375  0.578125 L 0.375 0.546875
      
        M 0.90625  0.40625 L 0.9375 0.4375
      
        M 0.46875  0.5546875 L 0.453125 0.546875
      
        M 0.296875  0.7421875 L 0.3125 0.75
      
        M 0.296875  0.625 L 0.3359375 0.578125
      
        M 0.71875  0.21875 L 0.75 0.1875
      
        M 0.671875  0.625 L 0.6875 0.6796875
      
        M 0.234375  0.5625 L 0.25 0.59375
      
        M 0.421875  0.078125 L 0.453125 0.1875
      
        M 0.921875  0.484375 L 0.875 0.484375
      
        M 0.546875  0.3125 L 0.5 0.375
      
        M 0.75  0.0 L 0.8125 0.03125
      
        M 0.125  0.65625 L 0.0859375 0.671875
      
        M 0.25  0.5 L 0.3125 0.5625
      
        M 0.9375  0.625 L 0.9296875 0.6015625
      
        M 0.625  0.71875 L 0.6484375 0.7265625
      
        M 0.75  0.125 L 0.875 0.09375
      
        M 0.796875  0.625 L 0.8359375 0.578125
      
        M 0.671875  0.25 L 0.71875 0.28125
      
        M 0.8203125  0.671875 L 0.84375 0.6796875
      
        M 0.203125  0.0 L 0.1875 0.046875
      
        M 0.3203125  0.671875 L 0.34375 0.6796875
      
        M 0.40625  0.40625 L 0.4375 0.4375
      
        M 0.453125  0.546875 L 0.46875 0.53125
      
        M 0.015625  0.421875 L 0.015625 0.375
      
        M 0.625  0.7421875 L 0.609375 0.75
      
        M 0.25  0.3125 L 0.171875 0.34375
      
        M 0.375  0.703125 L 0.4296875 0.7109375
      
        M 0.1875  0.5625 L 0.203125 0.609375
      
        M 0.9375  0.7421875 L 0.9453125 0.7265625
      
        M 0.125  0.5859375 L 0.09375 0.578125
      
        M 0.828125  0.65625 L 0.8125 0.6875
      
        M 0.6875  0.046875 L 0.75 0.0
      
        M 0.0  0.28125 L 0.046875 0.296875
      
        M 0.8515625  0.7421875 L 0.875 0.734375
      
        M 0.375  0.5 L 0.40625 0.515625
      
        M 0.125  0.5 L 0.09375 0.484375
      
        M 0.734375  0.515625 L 0.75 0.5625
      
        M 0.46875  0.375 L 0.5 0.5
      
        M 0.953125  0.703125 L 0.96875 0.71875
      
        M 0.40625  0.75 L 0.4140625 0.734375
      
        M 0.5078125  0.546875 L 0.5 0.5625
      
        M 0.703125  0.609375 L 0.71875 0.625
      
        M 0.625  0.5859375 L 0.65625 0.59375
      
        M 0.375  0.125 L 0.40625 0.21875
      
        M 0.78125  0.7265625 L 0.75 0.75
      
        M 0.171875  0.375 L 0.125 0.375
      
        M 0.78125  0.703125 L 0.78125 0.6640625
      
        M 0.625  0.5859375 L 0.59375 0.578125
      
        M 0.4375  0.4375 L 0.390625 0.4375
      
        M 0.03125  0.6953125 L 0.046875 0.703125
      
        M 0.6875  0.359375 L 0.75 0.34375
      
        M 0.328125  0.46875 L 0.3125 0.5
      
        M 0.8125  0.6875 L 0.84375 0.6953125
      
        M 0.1796875  0.7421875 L 0.171875 0.75
      
        M 0.3671875  0.6171875 L 0.375 0.609375
      
        M 0.578125  0.078125 L 0.6875 0.046875
      
        M 0.65625  0.3125 L 0.703125 0.328125
      
        M 0.15625  0.515625 L 0.1875 0.5625
      
        M 0.0  0.21875 L 0.015625 0.25
      
        M 0.328125  0.75 L 0.34375 0.734375
      
        M 0.375  0.53125 L 0.390625 0.5078125
      
        M 0.171875  0.5859375 L 0.203125 0.625
      
        M 0.5  0.5 L 0.59375 0.484375
      
        M 0.25  0.171875 L 0.21875 0.21875
      
        M 0.46875  0.703125 L 0.421875 0.6796875
      
        M 0.984375  0.625 L 1.0 0.65625
      
        M 0.8125  0.359375 L 0.75 0.375
      
        M 0.96875  0.625 L 0.9765625 0.65625
      
        M 0.5  0.125 L 0.53125 0.1875
      
        M 0.5625  0.3125 L 0.59375 0.25
      
        M 0.15625  0.40625 L 0.109375 0.40625
      
        M 0.375  0.71875 L 0.3984375 0.7265625
      
        M 0.296875  0.359375 L 0.375 0.359375
      
        M 0.5625  0.5 L 0.6015625 0.5
      
        M 0.9765625  0.625 L 1.0 0.671875
      
        M 0.6796875  0.7421875 L 0.671875 0.75
      
        M 0.0  0.578125 L 0.015625 0.59375
      
        M 0.625  0.6875 L 0.578125 0.703125
      
        M 0.671875  0.25 L 0.6875 0.1875
      
        M 0.234375  0.6875 L 0.25 0.75
      
        M 0.6875  0.5 L 0.65625 0.515625
      
        M 0.3125  0.515625 L 0.34375 0.5
      
        M 0.5859375  0.65625 L 0.5703125 0.65625
      
        M 0.0859375  0.6875 L 0.0625 0.6875
      
        M 0.703125  0.6875 L 0.71875 0.703125
      
        M 0.7265625  0.59375 L 0.75 0.625
      
        M 0.5  0.6875 L 0.4921875 0.703125
      
        M 0.703125  0.203125 L 0.75 0.15625
      
        M 0.3125  0.1875 L 0.25 0.25
      
        M 1.0  0.75 L 0.96875 0.703125
      
        M 0.546875  0.71875 L 0.5703125 0.671875
      
        M 0.9296875  0.6015625 L 0.9296875 0.5625
      
        M 0.25  0.28125 L 0.171875 0.3125
      
        M 0.875  0.546875 L 0.9296875 0.53125
      
        M 1.0  0.6875 L 0.9921875 0.703125
      
        M 0.265625  0.234375 L 0.28125 0.25
      
        M 0.921875  0.75 L 0.9296875 0.7421875
      
        M 0.0  0.75 L 0.046875 0.71875
      
        M 0.6875  0.46875 L 0.75 0.453125
      
        M 0.421875  0.625 L 0.4375 0.6640625
      
        M 0.265625  0.59375 L 0.3125 0.5625
      
        M 0.1875  0.046875 L 0.125 0.0
      
        M 0.265625  0.515625 L 0.3125 0.5
      
        M 0.1484375  0.7265625 L 0.140625 0.75
      
        M 0.0859375  0.6015625 L 0.09375 0.625
      
        M 0.46875  0.03125 L 0.5 0.125
      
        M 0.25  0.59375 L 0.2578125 0.609375
      
        M 0.9765625  0.5546875 L 0.9921875 0.5390625
      
        M 0.125  0.546875 L 0.171875 0.5859375
      
        M 0.796875  0.453125 L 0.859375 0.484375
      
        M 0.03125  0.59375 L 0.03125 0.625
      
        M 0.671875  0.5859375 L 0.703125 0.625
      
        M 0.484375  0.015625 L 0.5 0.0625
      
        M 0.21875  0.5 L 0.171875 0.5390625
      
        M 0.3125  0.1875 L 0.375 0.25
      
        M 0.015625  0.359375 L 0.0 0.375
      
        M 0.09375  0.578125 L 0.0859375 0.6015625
      
        M 0.375  0.359375 L 0.40625 0.375
      
        M 0.25  0.53125 L 0.2890625 0.578125
      
        M 0.84375  0.328125 L 0.84375 0.359375
      
        M 0.71875  0.5 L 0.671875 0.5390625
      
        M 0.71875  0.28125 L 0.75 0.28125
      
        M 0.125  0.703125 L 0.171875 0.7109375
      
        M 0.125  0.640625 L 0.0859375 0.65625
      
        M 0.578125  0.703125 L 0.5546875 0.703125
      
        M 0.328125  0.65625 L 0.3125 0.6875
      
        M 0.125  0.7265625 L 0.078125 0.75
      
        M 0.4375  0.546875 L 0.453125 0.53125
      
        M 0.1484375  0.6015625 L 0.171875 0.625
      
        M 0.5625  0.5625 L 0.5546875 0.59375
      
        M 0.84375  0.59375 L 0.875 0.5625
      
        M 0.5703125  0.671875 L 0.5703125 0.65625
      
        M 0.25  0.484375 L 0.21875 0.5
      
        M 0.4296875  0.6015625 L 0.4296875 0.5625
      
        M 0.0  0.5 L 0.0078125 0.546875
      
        M 0.75  0.75 L 0.796875 0.7421875
      
        M 0.6875  0.6796875 L 0.703125 0.6875
      
        M 0.46875  0.53125 L 0.46875 0.5546875
      
        M 0.453125  0.671875 L 0.453125 0.6953125
      
        M 0.4453125  0.71875 L 0.453125 0.703125
      
        M 0.8125  0.25 L 0.84375 0.328125
      
        M 0.8125  0.5625 L 0.859375 0.546875
      
        M 0.34375  0.6953125 L 0.375 0.6875
      
        M 0.875  0.703125 L 0.9296875 0.7109375
      
        M 0.421875  0.6796875 L 0.40625 0.6796875
      
        M 0.25  0.375 L 0.296875 0.359375
      
        M 0.34375  0.171875 L 0.40625 0.25
      
        M 0.75  0.1875 L 0.859375 0.15625
      
        M 0.6875  0.5 L 0.703125 0.484375
      
        M 0.4375  0.625 L 0.4296875 0.6015625
      
        M 0.625  0.375 L 0.5625 0.453125
      
        M 0.5625  0.5625 L 0.5234375 0.53125
      
        M 0.046875  0.625 L 0.0390625 0.6796875
      
        M 0.953125  0.625 L 0.984375 0.7109375
      
        M 0.5  0.5625 L 0.53125 0.59375
      
        M 0.4921875  0.5703125 L 0.5 0.5625
      
        M 0.875  0.578125 L 0.9296875 0.5625
      
        M 0.953125  0.109375 L 0.984375 0.078125
      
        M 0.25  0.6875 L 0.25 0.6484375
      
        M 0.34375  0.6796875 L 0.375 0.671875
      
        M 0.625  0.640625 L 0.5859375 0.65625
      
        M 0.8359375  0.625 L 0.859375 0.640625
      
        M 0.15625  0.5 L 0.140625 0.5078125
      
        M 0.59375  0.25 L 0.671875 0.15625
      
        M 0.8359375  0.625 L 0.84375 0.59375
      
        M 0.1875  0.15625 L 0.125 0.125
      
        M 0.625  0.375 L 0.6875 0.390625
      
        M 0.5078125  0.7109375 L 0.5078125 0.6875
      
        M 0.75  0.5625 L 0.765625 0.59375
      
        M 0.59375  0.578125 L 0.5625 0.5625
      
        M 0.0625  0.75 L 0.046875 0.7421875
      
        M 0.65625  0.515625 L 0.6875 0.5625
      
        M 0.203125  0.625 L 0.21875 0.6796875
      
        M 0.359375  0.75 L 0.375 0.7421875
      
        M 0.5  0.25 L 0.53125 0.1875
      
        M 0.296875  0.453125 L 0.28125 0.5
      
        M 0.1484375  0.6796875 L 0.1875 0.6796875
      
        M 0.4921875  0.625 L 0.5 0.640625
      
        M 0.6328125  0.6171875 L 0.640625 0.625
      
        M 0.25  0.4375 L 0.296875 0.453125
      
        M 0.859375  0.640625 L 0.875 0.640625
      
        M 0.6484375  0.7265625 L 0.640625 0.75
      
        M 0.2578125  0.5078125 L 0.28125 0.5
      
        M 0.5  0.0625 L 0.578125 0.15625
      
        M 0.625  0.734375 L 0.59375 0.75
      
        M 0.40625  0.25 L 0.4375 0.359375
      
        M 0.09375  0.5234375 L 0.0625 0.5
      
        M 0.546875  0.625 L 0.5390625 0.6796875
      
        M 0.484375  0.5859375 L 0.5 0.59375
      
        M 0.25  0.34375 L 0.171875 0.375
      
        M 0.34375  0.5234375 L 0.375 0.5
      
        M 0.0625  0.5 L 0.1015625 0.5
      
        M 0.9921875  0.5703125 L 1.0 0.5625
      
        M 0.8125  0.75 L 0.84375 0.71875
      
        M 0.125  0.125 L 0.046875 0.0625
      
        M 0.640625  0.609375 L 0.65625 0.625
      
        M 0.5234375  0.6953125 L 0.5078125 0.7109375
      
        M 0.46875  0.3125 L 0.46875 0.375
      
        M 0.359375  0.640625 L 0.375 0.640625
      
        M 0.0859375  0.53125 L 0.078125 0.5546875
      
        M 0.6875  0.625 L 0.703125 0.6875
      
        M 0.453125  0.046875 L 0.46875 0.125
      
        M 0.0078125  0.6796875 L 0.0 0.6875
      
        M 0.28125  0.6640625 L 0.3046875 0.671875
      
        M 0.609375  0.34375 L 0.5625 0.40625
      
        M 0.859375  0.203125 L 0.859375 0.125
      
        M 0.84375  0.734375 L 0.875 0.7265625
      
        M 0.0234375  0.6484375 L 0.0078125 0.6796875
      
        M 0.6796875  0.7421875 L 0.6875 0.75
      
        M 0.421875  0.75 L 0.4296875 0.7421875
      
        M 0.96875  0.71875 L 0.9453125 0.71875
      
        M 0.8671875  0.6171875 L 0.875 0.609375
      
        M 0.0  0.3125 L 0.03125 0.328125
      
        M 0.84375  0.25 L 0.875 0.328125
      
        M 0.859375  0.75 L 0.875 0.7421875
      
        M 0.9375  0.625 L 0.953125 0.671875
      
        M 0.6875  0.7421875 L 0.6953125 0.7265625
      
        M 0.140625  0.625 L 0.1484375 0.6796875
      
        M 0.078125  0.5703125 L 0.0703125 0.59375
      
        M 0.25  0.75 L 0.296875 0.7421875
      
        M 0.9921875  0.5703125 L 1.0 0.578125
      
        M 0.8125  0.03125 L 0.875 0.03125
      
        M 0.25  0.5625 L 0.265625 0.59375
      
        M 0.1484375  0.7265625 L 0.1796875 0.7421875
      
        M 0.546875  0.7421875 L 0.5 0.75
      
        M 0.84375  0.6953125 L 0.875 0.6875
      
        M 0.21875  0.71875 L 0.1953125 0.71875
      
        M 0.96875  0.703125 L 0.921875 0.6796875
      
        M 0.828125  0.75 L 0.84375 0.734375
      
        M 0.203125  0.6875 L 0.21875 0.703125
      
        M 0.75  0.21875 L 0.859375 0.203125
      
        M 0.0546875  0.59375 L 0.0625 0.625
      
        M 0.2265625  0.59375 L 0.25 0.625
      
        M 0.03125  0.1875 L 0.046875 0.25
      
        M 0.875  0.5 L 0.90625 0.515625
      
        M 0.46875  0.625 L 0.4765625 0.65625
      
        M 0.875  0.25 L 0.859375 0.203125
      
        M 0.875  0.71875 L 0.8984375 0.7265625
      
        M 0.71875  0.703125 L 0.75 0.75
      
        M 0.25  0.0 L 0.3125 0.03125
      
        M 0.71875  0.71875 L 0.6953125 0.71875
      
        M 0.0625  0.125 L 0.09375 0.25
      
        M 0.3984375  0.7265625 L 0.4296875 0.7421875
      
        M 0.5234375  0.6484375 L 0.5078125 0.6796875
      
        M 0.75  0.4375 L 0.796875 0.453125
      
        M 0.875  0.59375 L 0.9296875 0.578125
      
        M 0.4375  0.6640625 L 0.4375 0.6875
      
        M 0.453125  0.625 L 0.4609375 0.578125
      
        M 0.84375  0.6796875 L 0.875 0.671875
      
        M 0.46875  0.125 L 0.5 0.1875
      
        M 0.3359375  0.625 L 0.359375 0.640625
      
        M 0.8515625  0.6640625 L 0.875 0.65625
      
        M 0.0625  0.25 L 0.046875 0.296875
      
        M 0.171875  0.203125 L 0.1875 0.25
      
        M 0.90625  0.6640625 L 0.90625 0.6796875
      
        M 0.890625  0.453125 L 0.921875 0.484375
      
        M 0.25  0.4375 L 0.1875 0.453125
      
        M 0.84375  0.5 L 0.859375 0.484375
      
        M 0.703125  0.484375 L 0.75 0.46875
      
        M 0.984375  0.078125 L 0.984375 0.125
      
        M 0.90625  0.6796875 L 0.875 0.6875
      
        M 0.9296875  0.7421875 L 0.9375 0.75
      
        M 0.0  0.1875 L 0.015625 0.203125
      
        M 0.75  0.40625 L 0.859375 0.421875
      
        M 0.34375  0.71875 L 0.375 0.71875
      
        M 0.8359375  0.578125 L 0.875 0.546875
      
        M 0.140625  0.609375 L 0.15625 0.625
      
        M 0.421875  0.484375 L 0.375 0.484375
      
        M 0.9453125  0.71875 L 0.953125 0.703125
      
        M 0.765625  0.515625 L 0.8125 0.5
      
        M 0.625  0.7265625 L 0.578125 0.75
      
        M 0.359375  0.546875 L 0.375 0.53125
      
        M 0.0703125  0.59375 L 0.078125 0.625
      
        M 0.2734375  0.65625 L 0.25 0.6875
      
        M 0.625  0.65625 L 0.5859375 0.671875
      
        M 0.21875  0.703125 L 0.25 0.75
      
        M 0.3515625  0.7421875 L 0.375 0.734375
      
        M 0.375  0.546875 L 0.4296875 0.53125
      
        M 0.78125  0.6640625 L 0.8046875 0.671875
      
        M 0.65625  0.625 L 0.671875 0.6796875
      
        M 0.25  0.453125 L 0.15625 0.5
      
        M 0.1875  0.0625 L 0.25 0.09375
      
        M 0.9296875  0.5625 L 0.9375 0.546875
      
        M 0.15625  0.59375 L 0.1875 0.625
      
        M 0.7421875  0.5078125 L 0.75 0.53125
      
        M 0.53125  0.59375 L 0.53125 0.625
      
        M 1.0  0.5 L 0.9375 0.40625
      
        M 0.78125  0.65625 L 0.796875 0.625
      
        M 0.0625  0.1875 L 0.0625 0.25
      
        M 0.90625  0.25 L 0.96875 0.421875
      
        M 0.75  0.625 L 0.734375 0.65625
      
        M 0.9921875  0.5390625 L 0.9921875 0.5625
      
        M 0.9921875  0.703125 L 1.0 0.75
      
        M 0.5  0.296875 L 0.546875 0.3125
      
        M 0.296875  0.453125 L 0.359375 0.484375
      
        M 0.734375  0.65625 L 0.734375 0.6875
      
        M 0.734375  0.6875 L 0.75 0.75
      
        M 0.21875  0.21875 L 0.21875 0.25
      
        M 0.125  0.71875 L 0.1484375 0.7265625
      
        M 0.75  0.15625 L 0.859375 0.125
      
        M 0.25  0.5 L 0.1875 0.5625
      
        M 0.40625  0.515625 L 0.4375 0.515625
      
        M 0.125  0.5859375 L 0.109375 0.609375
      
        M 0.9375  0.6640625 L 0.9375 0.6875
      
        M 0.09375  0.40625 L 0.0625 0.4375
      
        M 0.53125  0.71875 L 0.53125 0.6953125
      
        M 0.78125  0.5 L 0.796875 0.453125
      
        M 0.84375  0.71875 L 0.875 0.71875
      
        M 0.3125  0.75 L 0.34375 0.71875
      
        M 0.046875  0.71875 L 0.0703125 0.671875
      
        M 0.625  0.71875 L 0.59375 0.7265625
      
        M 0.5  0.578125 L 0.515625 0.59375
      
        M 0.0  0.65625 L 0.015625 0.6640625
      
        M 0.578125  0.5546875 L 0.546875 0.53125
      
        M 0.5859375  0.671875 L 0.5703125 0.671875
      
        M 0.0703125  0.65625 L 0.0625 0.625
      
        M 0.4375  0.0 L 0.34375 0.078125
      
        M 0.359375  0.609375 L 0.375 0.59375
      
        M 0.03125  0.625 L 0.0234375 0.6484375
      
        M 0.984375  0.140625 L 1.0 0.125
      
        M 0.875  0.328125 L 0.875 0.375
      
        M 1.0  0.375 L 0.984375 0.40625
      
        M 0.3125  0.71875 L 0.375 0.703125
      
        M 0.5  0.65625 L 0.515625 0.6640625
      
        M 0.15625  0.140625 L 0.140625 0.1875
      
        M 0.6640625  0.734375 L 0.65625 0.75
      
        M 0.1875  0.15625 L 0.171875 0.203125
      
        M 0.4765625  0.65625 L 0.5 0.6875
      
        M 0.625  0.125 L 0.71875 0.09375
      
        M 0.3359375  0.625 L 0.34375 0.59375
      
        M 0.875  0.609375 L 0.9296875 0.6015625
      
        M 0.671875  0.15625 L 0.75 0.09375
      
        M 0.59375  0.7265625 L 0.5625 0.75
      
        M 0.7734375  0.65625 L 0.75 0.6875
      
        M 0.625  0.703125 L 0.5390625 0.734375
      
        M 0.25  0.40625 L 0.34375 0.421875
      
        M 0.015625  0.59375 L 0.0234375 0.625
      
        M 0.4296875  0.5625 L 0.4375 0.546875
      
        M 0.0234375  0.6953125 L 0.0078125 0.7109375
      
        M 0.875  0.484375 L 0.890625 0.453125
      
        M 0.2265625  0.5234375 L 0.234375 0.5625
      
        M 0.1640625  0.734375 L 0.15625 0.75
      
        M 0.09375  0.53125 L 0.125 0.546875
      
        M 0.53125  0.625 L 0.5234375 0.6484375
      
        M 0.3125  0.6875 L 0.28125 0.7265625
      
        M 0.109375  0.1875 L 0.125 0.25
      
        M 0.0  0.34375 L 0.015625 0.359375
      
        M 0.4375  0.40625 L 0.5 0.5
      
        M 0.703125  0.625 L 0.71875 0.6796875
      
        M 0.171875  0.3125 L 0.140625 0.3125
      
        M 0.4375  0.515625 L 0.5 0.5
      
        M 0.9765625  0.6015625 L 1.0 0.609375
      
        M 0.859375  0.609375 L 0.875 0.59375
      
        M 0.71875  0.09375 L 0.75 0.0625
      
        M 0.8046875  0.671875 L 0.78125 0.703125
      
        M 0.046875  0.7421875 L 0.0 0.75
      
        M 0.96875  0.25 L 1.0 0.3125
      
        M 0.375  0.578125 L 0.4296875 0.5625
      
        M 0.4453125  0.7265625 L 0.4609375 0.7421875
      
        M 0.7890625  0.5390625 L 0.84375 0.5234375
      
        M 0.046875  0.390625 L 0.015625 0.421875
      
        M 0.7265625  0.5234375 L 0.734375 0.5625
      
        M 0.0859375  0.65625 L 0.0703125 0.65625
      
        M 0.8515625  0.6015625 L 0.875 0.578125
      
        M 0.40625  0.21875 L 0.4375 0.25
      
        M 0.734375  0.5625 L 0.75 0.59375
      
        M 0.75  0.625 L 0.765625 0.59375
      
        M 0.359375  0.484375 L 0.34375 0.5
      
        M 0.859375  0.546875 L 0.875 0.53125
      
        M 0.5  0.671875 L 0.5078125 0.6796875
      
        M 0.09375  0.4375 L 0.140625 0.34375
      
        M 0.75  0.6484375 L 0.7734375 0.65625
      
        M 0.96875  0.625 L 0.9765625 0.6015625
      
        M 0.6875  0.5625 L 0.703125 0.609375
      
        M 0.1875  0.7421875 L 0.1953125 0.7265625
      
        M 0.09375  0.484375 L 0.0 0.5
      
        M 0.9375  0.25 L 0.953125 0.3125
      
        M 0.75  0.5 L 0.6875 0.5625
      
        M 0.0  0.640625 L 0.0234375 0.6484375
      
        M 0.0  0.125 L 0.0625 0.1875
      
        M 0.625  0.03125 L 0.6875 0.0
      
        M 0.703125  0.703125 L 0.71875 0.71875
      
        M 0.4375  0.25 L 0.484375 0.28125
      
        M 0.5  0.75 L 0.46875 0.703125
      
        M 0.1875  0.6796875 L 0.203125 0.6875
      
        M 0.9765625  0.65625 L 1.0 0.6875
      
        M 0.015625  0.203125 L 0.03125 0.25
      
        M 0.890625  0.625 L 0.90625 0.6640625
      
        M 0.4296875  0.7421875 L 0.4375 0.75
      
        M 0.25  0.625 L 0.234375 0.65625
      
        M 0.6875  0.1875 L 0.75 0.125
      
        M 0.6484375  0.6796875 L 0.6875 0.6796875
      
        M 0.0625  0.5625 L 0.0234375 0.53125
      
        M 0.03125  0.71875 L 0.03125 0.6953125
      
        M 0.5  0.1875 L 0.515625 0.21875
      
        M 0.40625  0.6796875 L 0.375 0.6875
      
        M 0.5078125  0.6875 L 0.5234375 0.6953125
      
        M 0.3515625  0.6640625 L 0.375 0.65625
      
        M 0.859375  0.484375 L 0.875 0.5
      
        M 0.625  0.5859375 L 0.609375 0.609375
      
        M 0.953125  0.203125 L 0.984375 0.140625
      
        M 0.421875  0.6640625 L 0.421875 0.6796875
      
        M 0.59375  0.578125 L 0.5859375 0.6015625
      
        M 0.75  0.59375 L 0.7578125 0.609375
      
        M 0.75  0.5 L 0.8125 0.5625
      
        M 0.0234375  0.53125 L 0.0 0.5
      
        M 0.53125  0.6953125 L 0.546875 0.703125
      
        M 0.0  0.5 L 0.09375 0.4375
      
        M 0.1953125  0.71875 L 0.203125 0.703125
      
        M 0.1875  0.625 L 0.203125 0.6875
      
        M 0.0078125  0.546875 L 0.0 0.5625
      
        M 0.34375  0.734375 L 0.375 0.7265625
      
        M 0.5625  0.453125 L 0.5 0.5
      
        M 0.625  0.6875 L 0.6484375 0.6796875
      
        M 0.1875  0.453125 L 0.125 0.5
      
        M 0.359375  0.484375 L 0.375 0.5
      
        M 0.6484375  0.6015625 L 0.671875 0.625
      
        M 0.4921875  0.5625 L 0.4765625 0.5546875
      
        M 0.15625  0.625 L 0.171875 0.6796875
      
        M 0.71875  0.5 L 0.75 0.484375
      
        M 0.4609375  0.7421875 L 0.4375 0.7421875
      
        M 0.84375  0.359375 L 0.8125 0.359375
      
        M 0.5  0.59375 L 0.5078125 0.6015625
      
        M 0.90625  0.09375 L 0.9375 0.0625
      
        M 0.65625  0.59375 L 0.625 0.625
      
        M 0.5078125  0.6015625 L 0.515625 0.625
      
        M 0.390625  0.75 L 0.3984375 0.7265625
      
        M 0.4765625  0.5546875 L 0.4921875 0.5390625
      
        M 0.59375  0.484375 L 0.625 0.5
      
        M 0.0859375  0.671875 L 0.0703125 0.671875
      
        M 0.890625  0.75 L 0.8984375 0.7265625
      
        M 0.5  0.375 L 0.5 0.296875
      
        M 0.828125  0.65625 L 0.8515625 0.6640625
      
        M 0.65625  0.5 L 0.640625 0.5078125
      
        M 0.875  0.5625 L 0.9375 0.546875
      
        M 0.984375  0.5859375 L 1.0 0.59375
      
        M 0.5703125  0.59375 L 0.578125 0.625
      
        M 0.5859375  0.6015625 L 0.59375 0.625
      
        M 0.0  0.609375 L 0.0078125 0.625
      
        M 0.90625  0.0625 L 1.0 0.0
      
        M 0.5625  0.328125 L 0.609375 0.34375
      
        M 0.3359375  0.625 L 0.328125 0.65625
      
        M 0.953125  0.625 L 0.9609375 0.578125
      
        M 0.34375  0.59375 L 0.375 0.625
      
        M 0.140625  0.34375 L 0.140625 0.3125
      
        M 0.796875  0.7421875 L 0.8125 0.75
      
        M 0.125  0.6875 L 0.078125 0.703125
      
        M 0.125  0.125 L 0.109375 0.1875
      
        M 0.875  0.03125 L 1.0 0.0
      
        M 0.125  0.734375 L 0.09375 0.75
      
        M 0.84375  0.5234375 L 0.875 0.5
      
        M 0.2734375  0.5234375 L 0.3125 0.515625
      
        M 0.78125  0.25 L 0.8125 0.328125
      
        M 0.3125  0.25 L 0.34375 0.359375
      
        M 0.5  0.640625 L 0.5234375 0.6484375
      
        M 0.5234375  0.53125 L 0.5 0.5
      
        M 0.6484375  0.7265625 L 0.6796875 0.7421875
      
        M 0.1328125  0.6171875 L 0.140625 0.625
      
        M 0.453125  0.703125 L 0.46875 0.71875
      
        M 0.078125  0.5546875 L 0.046875 0.53125
      
        M 0.984375  0.25 L 1.0 0.28125
      
        M 0.0625  0.5625 L 0.0546875 0.59375
      
      " fill="none" stroke="black" stroke-width="0.001" transform="translate(0 500) scale(500 -500)" />
</svg>
