<?xml version="1.0" standalone="no"?>
<!DOCTYPE svg PUBLIC "-//W3C//DTD SVG 1.1//EN"
  "http://www.w3.org/Graphics/SVG/1.1/DTD/svg11.dtd">
<svg width="100%" height="100%" viewBox="0 0 500 500"
     xmlns="http://www.w3.org/2000/svg" version="1.1">
     <path d="
       M 0 0 L 1 0 L 1 1 L 0 1 z
      
        M 0.6875  1.0 L 0.71875 0.96875
      
        M 0.1875  0.5 L 0.34375 0.3125
      
        M 0.125  0.65625 L 0.21875 0.6875
      
        M 0.3125  0.625 L 0.40625 0.65625
      
        M 0.0  1.0 L 0.1875 0.96875
      
        M 0.0  0.75 L 0.0 0.59375
      
        M 0.34375  0.5 L 0.4375 0.5625
      
        M 0.9375  0.34375 L 1.0 0.375
      
        M 0.5  0.0 L 0.625 0.0625
      
        M 0.375  0.9375 L 0.5 0.90625
      
        M 0.75  0.5 L 0.8125 0.6875
      
        M 0.25  0.75 L 0.125 0.90625
      
        M 0.3125  1.0 L 0.375 0.9375
      
        M 0.78125  0.875 L 0.8125 0.8125
      
        M 0.375  0.71875 L 0.5 0.6875
      
        M 0.0  0.125 L 0.15625 0.3125
      
        M 0.28125  0.6875 L 0.375 0.71875
      
        M 0.09375  0.09375 L 0.25 0.0625
      
        M 1.0  1.0 L 0.875 0.8125
      
        M 0.96875  0.5 L 1.0 0.5625
      
        M 0.40625  0.65625 L 0.5 0.625
      
        M 0.90625  0.40625 L 0.96875 0.28125
      
        M 0.375  1.0 L 0.40625 0.96875
      
        M 0.875  0.5 L 0.90625 0.625
      
        M 0.40625  0.96875 L 0.5 0.9375
      
        M 0.96875  0.8125 L 1.0 1.0
      
        M 0.875  0.8125 L 0.6875 0.71875
      
        M 0.75  0.0625 L 1.0 0.0
      
        M 0.09375  0.625 L 0.0 0.75
      
        M 0.96875  0.28125 L 1.0 0.25
      
        M 0.1875  0.96875 L 0.25 1.0
      
        M 0.0625  0.375 L 0.25 0.25
      
        M 0.25  0.75 L 0.375 0.78125
      
        M 0.5  0.875 L 0.59375 0.90625
      
        M 0.375  0.78125 L 0.5 0.75
      
        M 0.34375  0.5 L 0.3125 0.625
      
        M 0.96875  0.15625 L 0.96875 0.25
      
        M 1.0  0.75 L 0.96875 0.8125
      
        M 0.8125  0.6875 L 0.8125 0.78125
      
        M 0.5  0.25 L 0.75 0.1875
      
        M 0.4375  0.1875 L 0.5 0.125
      
        M 0.625  0.5 L 0.6875 0.65625
      
        M 0.8125  0.8125 L 0.875 0.875
      
        M 0.15625  0.15625 L 0.375 0.09375
      
        M 0.25  0.25 L 0.4375 0.1875
      
        M 0.5  0.3125 L 0.71875 0.25
      
        M 0.0  0.59375 L 0.09375 0.625
      
        M 0.375  0.375 L 0.5 0.25
      
        M 0.5  0.375 L 0.71875 0.3125
      
        M 0.75  0.1875 L 0.8125 0.125
      
        M 0.75  0.5 L 0.71875 0.40625
      
        M 0.875  0.875 L 0.78125 0.875
      
        M 0.84375  0.96875 L 0.75 0.96875
      
        M 0.0  0.5 L 0.0625 0.375
      
        M 0.90625  0.625 L 1.0 0.75
      
        M 0.25  0.875 L 0.5 0.8125
      
        M 0.5  0.125 L 0.5625 0.03125
      
        M 0.71875  0.40625 L 0.71875 0.25
      
        M 0.4375  0.5625 L 0.5 0.5625
      
        M 0.375  0.375 L 0.5 0.5
      
        M 0.375  0.09375 L 0.5 0.0
      
        M 0.6875  0.65625 L 0.6875 0.71875
      
        M 0.6875  0.71875 L 0.625 0.71875
      
        M 0.59375  0.90625 L 0.71875 0.96875
      
        M 0.96875  0.28125 L 1.0 0.3125
      
        M 0.25  0.0625 L 0.375 0.0
      
        M 0.875  0.125 L 0.875 0.21875
      
        M 0.4375  0.4375 L 0.5 0.375
      
        M 0.875  0.21875 L 0.8125 0.1875
      
        M 0.125  0.8125 L 0.125 0.65625
      
        M 0.5625  0.5 L 0.625 0.65625
      
        M 0.5625  1.0 L 0.59375 0.90625
      
        M 0.03125  0.03125 L 0.125 0.0
      
        M 0.34375  0.3125 L 0.5 0.1875
      
        M 0.78125  0.90625 L 0.84375 0.96875
      
        M 0.75  0.96875 L 0.78125 0.90625
      
        M 0.5  0.1875 L 0.71875 0.125
      
        M 0.4375  1.0 L 0.5 0.96875
      
        M 0.6875  0.5 L 0.75 0.65625
      
        M 0.96875  0.25 L 0.90625 0.21875
      
        M 0.71875  0.25 L 0.75 0.1875
      
        M 0.8125  0.125 L 1.0 0.0
      
        M 0.125  0.625 L 0.1875 0.5
      
        M 0.8125  0.1875 L 0.875 0.125
      
        M 0.9375  0.5 L 1.0 0.625
      
        M 0.90625  0.21875 L 0.96875 0.15625
      
        M 0.90625  0.40625 L 1.0 0.4375
      
        M 0.25  1.0 L 0.375 0.875
      
        M 0.625  0.65625 L 0.625 0.71875
      
        M 0.21875  0.6875 L 0.125 0.8125
      
        M 0.3125  0.625 L 0.25 0.75
      
        M 0.8125  0.5 L 0.9375 0.84375
      
        M 0.875  0.5 L 0.90625 0.40625
      
        M 0.8125  0.5 L 0.84375 0.3125
      
        M 0.5  0.8125 L 0.71875 0.84375
      
        M 0.375  0.875 L 0.5 0.875
      
        M 0.625  0.71875 L 0.5 0.75
      
        M 0.34375  0.5 L 0.375 0.375
      
        M 0.5  0.4375 L 0.71875 0.40625
      
        M 0.0  0.375 L 0.03125 0.4375
      
        M 0.46875  0.46875 L 0.5 0.4375
      
        M 0.0  0.0 L 0.25 0.25
      
        M 0.0  0.25 L 0.0625 0.375
      
        M 0.0625  0.0625 L 0.25 0.0
      
        M 0.625  0.0625 L 0.75 0.0625
      
        M 0.71875  0.96875 L 0.75 1.0
      
        M 0.75  0.65625 L 0.75 0.75
      
        M 0.125  0.90625 L 0.0 1.0
      
        M 0.625  1.0 L 0.65625 0.9375
      
        M 0.90625  0.5 L 1.0 0.6875
      
        M 0.40625  0.40625 L 0.5 0.3125
      
      " fill="none" stroke="black" stroke-width="0.001" transform="translate(0 500) scale(500 -500)" />
</svg>
