<?xml version="1.0" standalone="no"?>
<!DOCTYPE svg PUBLIC "-//W3C//DTD SVG 1.1//EN"
  "http://www.w3.org/Graphics/SVG/1.1/DTD/svg11.dtd">
<svg width="100%" height="100%" viewBox="0 0 500 500"
     xmlns="http://www.w3.org/2000/svg" version="1.1">
     <path d="
       M 0 0 L 1 0 L 1 1 L 0 1 z
      
        M 0.42857142857142855  0.7 L 0.42857142857142855 0.75
      
        M 0.5714285714285714  0.5 L 0.7142857142857143 0.45
      
        M 0.42857142857142855  1.0 L 0.5714285714285714 1.0
      
        M 0.7142857142857143  0.35 L 0.8571428571428571 0.35
      
        M 0.5714285714285714  0.0 L 0.5 0.1
      
        M 0.42857142857142855  0.25 L 0.0 0.25
      
        M 0.5714285714285714  0.35 L 0.5714285714285714 0.3
      
        M 0.2857142857142857  0.4 L 0.2857142857142857 0.45
      
        M 0.2857142857142857  0.5 L 0.42857142857142855 0.7
      
        M 0.7142857142857143  0.4 L 0.5714285714285714 0.35
      
        M 0.5714285714285714  0.5 L 0.5 0.6
      
        M 0.5714285714285714  0.85 L 0.5714285714285714 0.8
      
        M 0.5714285714285714  0.8 L 0.7142857142857143 0.8
      
        M 0.7142857142857143  0.8 L 0.7142857142857143 0.85
      
        M 0.8571428571428571  0.75 L 0.5714285714285714 0.75
      
        M 0.5714285714285714  0.7 L 0.7142857142857143 0.5
      
        M 0.0  0.8 L 0.42857142857142855 0.8
      
        M 0.0  0.75 L 0.0 0.8
      
        M 0.5714285714285714  0.2 L 0.7142857142857143 0.0
      
        M 0.7142857142857143  0.3 L 0.7142857142857143 0.35
      
        M 0.42857142857142855  0.8 L 0.42857142857142855 0.85
      
        M 0.2857142857142857  0.9 L 0.2857142857142857 0.95
      
        M 0.5  0.1 L 0.42857142857142855 0.0
      
        M 0.2857142857142857  0.45 L 0.42857142857142855 0.5
      
        M 0.42857142857142855  0.35 L 0.2857142857142857 0.4
      
        M 0.42857142857142855  0.75 L 0.0 0.75
      
        M 0.7142857142857143  0.5 L 0.5714285714285714 0.5
      
        M 0.5  0.6 L 0.42857142857142855 0.5
      
        M 0.2857142857142857  0.95 L 0.42857142857142855 1.0
      
        M 0.5714285714285714  0.75 L 0.5714285714285714 0.7
      
        M 0.2857142857142857  0.0 L 0.42857142857142855 0.2
      
        M 0.0  0.3 L 0.42857142857142855 0.3
      
        M 0.5714285714285714  0.3 L 0.7142857142857143 0.3
      
        M 0.7142857142857143  0.9 L 0.5714285714285714 0.85
      
        M 0.7142857142857143  0.45 L 0.7142857142857143 0.4
      
        M 0.5714285714285714  1.0 L 0.7142857142857143 0.95
      
        M 0.42857142857142855  0.5 L 0.2857142857142857 0.5
      
        M 0.42857142857142855  0.85 L 0.2857142857142857 0.9
      
        M 0.42857142857142855  0.3 L 0.42857142857142855 0.35
      
        M 0.7142857142857143  0.85 L 0.8571428571428571 0.85
      
        M 0.42857142857142855  0.5 L 0.5714285714285714 0.5
      
        M 0.8571428571428571  0.25 L 0.5714285714285714 0.25
      
        M 0.7142857142857143  0.0 L 0.5714285714285714 0.0
      
        M 0.0  0.25 L 0.0 0.3
      
        M 0.8571428571428571  0.35 L 0.8571428571428571 0.25
      
        M 0.42857142857142855  0.0 L 0.2857142857142857 0.0
      
        M 0.8571428571428571  0.85 L 0.8571428571428571 0.75
      
        M 0.5714285714285714  0.25 L 0.5714285714285714 0.2
      
        M 0.42857142857142855  0.2 L 0.42857142857142855 0.25
      
        M 0.7142857142857143  0.95 L 0.7142857142857143 0.9
      
      " fill="none" stroke="black" stroke-width="0.001" transform="translate(0 500) scale(500 -500)" />
</svg>
