<?xml version="1.0" standalone="no"?>
<!DOCTYPE svg PUBLIC "-//W3C//DTD SVG 1.1//EN"
  "http://www.w3.org/Graphics/SVG/1.1/DTD/svg11.dtd">
<svg width="100%" height="100%" viewBox="0 0 500 500"
     xmlns="http://www.w3.org/2000/svg" version="1.1">
     <path d="
       M 0 0 L 1 0 L 1 1 L 0 1 z
      
        M 0.2857142857142857  0.4 L 0.35714285714285715 0.0
      
        M 0.7857142857142857  1.0 L 0.8571428571428572 0.9
      
        M 0.7142857142857143  0.6 L 0.7142857142857143 0.7
      
        M 0.7857142857142857  0.5 L 0.7857142857142857 0.4
      
        M 0.6428571428571428  0.9 L 0.7142857142857143 1.0
      
        M 0.2857142857142857  0.6 L 0.35714285714285715 0.6
      
        M 0.5  0.6 L 0.7142857142857143 0.6
      
        M 0.14285714285714285  0.0 L 0.21428571428571427 0.4
      
        M 0.7142857142857143  0.7 L 0.6428571428571428 0.8
      
        M 0.8571428571428572  0.8 L 0.7857142857142857 0.7
      
        M 0.8571428571428572  0.9 L 0.8571428571428572 0.8
      
        M 0.21428571428571427  0.0 L 0.14285714285714285 0.0
      
        M 0.7857142857142857  0.0 L 0.75 0.2
      
        M 0.21428571428571427  1.0 L 0.2857142857142857 1.0
      
        M 0.14285714285714285  0.8 L 0.14285714285714285 0.9
      
        M 0.2857142857142857  0.5 L 0.2857142857142857 0.4
      
        M 0.21428571428571427  0.6 L 0.21428571428571427 0.7
      
        M 0.8571428571428572  0.0 L 0.7857142857142857 0.0
      
        M 0.0  0.5 L 0.0 0.6
      
        M 0.7142857142857143  0.5 L 0.5 0.5
      
        M 0.7857142857142857  0.7 L 0.7857142857142857 0.6
      
        M 0.35714285714285715  0.8 L 0.2857142857142857 0.7
      
        M 0.2857142857142857  0.7 L 0.2857142857142857 0.6
      
        M 0.42857142857142855  0.7 L 0.42857142857142855 0.5
      
        M 0.35714285714285715  0.9 L 0.35714285714285715 0.8
      
        M 0.25  0.2 L 0.21428571428571427 0.0
      
        M 0.21428571428571427  0.7 L 0.14285714285714285 0.8
      
        M 0.2857142857142857  0.0 L 0.25 0.2
      
        M 0.8571428571428572  0.7 L 0.9285714285714286 0.7
      
        M 0.14285714285714285  0.9 L 0.21428571428571427 1.0
      
        M 0.7142857142857143  0.0 L 0.6428571428571428 0.0
      
        M 0.0  0.6 L 0.21428571428571427 0.6
      
        M 0.21428571428571427  0.4 L 0.21428571428571427 0.5
      
        M 0.7857142857142857  0.4 L 0.8571428571428572 0.0
      
        M 0.2857142857142857  1.0 L 0.35714285714285715 0.9
      
        M 0.9285714285714286  0.5 L 0.7857142857142857 0.5
      
        M 0.42857142857142855  0.5 L 0.2857142857142857 0.5
      
        M 0.5  0.5 L 0.5 0.6
      
        M 0.8571428571428572  0.6 L 0.8571428571428572 0.7
      
        M 0.35714285714285715  0.0 L 0.2857142857142857 0.0
      
        M 0.21428571428571427  0.5 L 0.0 0.5
      
        M 0.7142857142857143  1.0 L 0.7857142857142857 1.0
      
        M 0.9285714285714286  0.7 L 0.9285714285714286 0.5
      
        M 0.35714285714285715  0.7 L 0.42857142857142855 0.7
      
        M 0.7857142857142857  0.6 L 0.8571428571428572 0.6
      
        M 0.75  0.2 L 0.7142857142857143 0.0
      
        M 0.6428571428571428  0.8 L 0.6428571428571428 0.9
      
        M 0.6428571428571428  0.0 L 0.7142857142857143 0.4
      
        M 0.7142857142857143  0.4 L 0.7142857142857143 0.5
      
        M 0.35714285714285715  0.6 L 0.35714285714285715 0.7
      
      " fill="none" stroke="black" stroke-width="0.001" transform="translate(0 500) scale(500 -500)" />
</svg>
