<?xml version="1.0" standalone="no"?>
<!DOCTYPE svg PUBLIC "-//W3C//DTD SVG 1.1//EN"
  "http://www.w3.org/Graphics/SVG/1.1/DTD/svg11.dtd">
<svg width="100%" height="100%" viewBox="0 0 500 500"
     xmlns="http://www.w3.org/2000/svg" version="1.1">
     <path d="
       M 0 0 L 1 0 L 1 1 L 0 1 z
      
        M 0.6  0.42857142857142855 L 0.5 0.42857142857142855
      
        M 0.5  0.42857142857142855 L 0.5 0.0
      
        M 0.5  0.0 L 0.4 0.0
      
        M 0.4  0.0 L 0.4 0.42857142857142855
      
        M 0.4  0.42857142857142855 L 0.30000000000000004 0.42857142857142855
      
        M 0.30000000000000004  0.42857142857142855 L 0.19999999999999996 0.2857142857142857
      
        M 0.19999999999999996  0.2857142857142857 L 0.09999999999999998 0.2857142857142857
      
        M 0.09999999999999998  0.2857142857142857 L 0.0 0.42857142857142855
      
        M 0.0  0.42857142857142855 L 0.0 0.5714285714285714
      
        M 0.0  0.5714285714285714 L 0.09999999999999998 0.7142857142857143
      
        M 0.09999999999999998  0.7142857142857143 L 0.19999999999999996 0.7142857142857143
      
        M 0.19999999999999996  0.7142857142857143 L 0.30000000000000004 0.5714285714285714
      
        M 0.30000000000000004  0.5714285714285714 L 0.4 0.5714285714285714
      
        M 0.4  0.5714285714285714 L 0.4 0.7142857142857143
      
        M 0.4  0.7142857142857143 L 0.30000000000000004 0.7142857142857143
      
        M 0.30000000000000004  0.7142857142857143 L 0.30000000000000004 0.8571428571428571
      
        M 0.30000000000000004  0.8571428571428571 L 0.5 0.8571428571428571
      
        M 0.5  0.8571428571428571 L 0.5 0.5714285714285714
      
        M 0.5  0.5714285714285714 L 0.6 0.5714285714285714
      
        M 0.6  0.5714285714285714 L 1.0 0.7142857142857143
      
        M 1.0  0.7142857142857143 L 1.0 0.5714285714285714
      
        M 1.0  0.5714285714285714 L 0.8 0.5
      
        M 0.8  0.5 L 1.0 0.42857142857142855
      
        M 1.0  0.42857142857142855 L 1.0 0.2857142857142857
      
        M 1.0  0.2857142857142857 L 0.6 0.42857142857142855
      
      " fill="none" stroke="black" stroke-width="0.001" transform="translate(0 500) scale(500 -500)" />
</svg>
