<?xml version="1.0" standalone="no"?>
<!DOCTYPE svg PUBLIC "-//W3C//DTD SVG 1.1//EN"
  "http://www.w3.org/Graphics/SVG/1.1/DTD/svg11.dtd">
<svg width="100%" height="100%" viewBox="0 0 500 500"
     xmlns="http://www.w3.org/2000/svg" version="1.1">
     <path d="
       M 0 0 L 1 0 L 1 1 L 0 1 z
      
        M 0.7142857142857143  0.5 L 0.75 0.4
      
        M 0.2857142857142857  0.75 L 0.2857142857142857 0.7
      
        M 0.7142857142857143  0.15000000000000002 L 0.7142857142857143 0.2
      
        M 0.5  0.35714285714285715 L 0.5 0.2857142857142857
      
        M 0.8571428571428572  0.09999999999999998 L 0.8571428571428572 0.04999999999999999
      
        M 0.25  0.2857142857142857 L 0.3 0.2857142857142857
      
        M 0.15000000000000002  0.42857142857142855 L 0.25 0.42857142857142855
      
        M 0.0  0.2857142857142857 L 0.04999999999999999 0.35714285714285715
      
        M 0.25  0.0 L 0.2 0.0
      
        M 0.75  0.7857142857142857 L 0.75 1.0
      
        M 0.5  0.7857142857142857 L 0.5 0.8571428571428572
      
        M 0.75  0.7142857142857143 L 0.7 0.7142857142857143
      
        M 0.7142857142857143  0.25 L 0.7142857142857143 0.3
      
        M 0.42857142857142855  0.75 L 0.2857142857142857 0.75
      
        M 0.6428571428571428  0.5 L 0.7142857142857143 0.5
      
        M 1.0  0.7857142857142857 L 1.0 0.7142857142857143
      
        M 0.25  0.42857142857142855 L 0.25 0.2857142857142857
      
        M 0.6428571428571428  0.2 L 0.6428571428571428 0.15000000000000002
      
        M 0.04999999999999999  0.14285714285714285 L 0.0 0.21428571428571427
      
        M 0.14285714285714285  0.5 L 0.21428571428571427 0.7
      
        M 0.7857142857142857  0.3 L 0.7857142857142857 0.25
      
        M 0.7142857142857143  0.0 L 0.6428571428571428 0.04999999999999999
      
        M 0.75  0.5714285714285714 L 0.75 0.7142857142857143
      
        M 0.21428571428571427  1.0 L 0.2857142857142857 1.0
      
        M 0.0  0.75 L 0.0 0.8
      
        M 0.21428571428571427  0.85 L 0.14285714285714285 0.9
      
        M 0.2857142857142857  0.7 L 0.35714285714285715 0.5
      
        M 0.7142857142857143  0.3 L 0.6428571428571428 0.5
      
        M 0.0  0.21428571428571427 L 0.0 0.2857142857142857
      
        M 0.25  0.21428571428571427 L 0.25 0.0
      
        M 0.8  1.0 L 0.8 0.7857142857142857
      
        M 0.2  0.35714285714285715 L 0.15000000000000002 0.35714285714285715
      
        M 0.3  0.2857142857142857 L 0.5 0.35714285714285715
      
        M 0.75  1.0 L 0.8 1.0
      
        M 0.0  0.8 L 0.21428571428571427 0.8
      
        M 0.35714285714285715  0.5 L 0.2857142857142857 0.5
      
        M 0.35714285714285715  0.95 L 0.35714285714285715 0.9
      
        M 0.8571428571428572  0.5 L 0.7857142857142857 0.3
      
        M 0.5714285714285714  0.25 L 0.7142857142857143 0.25
      
        M 0.35714285714285715  0.9 L 0.2857142857142857 0.85
      
        M 0.2857142857142857  0.8 L 0.35714285714285715 0.8
      
        M 0.7142857142857143  0.2 L 0.6428571428571428 0.2
      
        M 0.7  0.7857142857142857 L 0.75 0.7857142857142857
      
        M 0.14285714285714285  0.95 L 0.21428571428571427 1.0
      
        M 1.0  0.25 L 1.0 0.2
      
        M 0.85  0.7857142857142857 L 0.9 0.8571428571428572
      
        M 0.9  0.6428571428571428 L 0.85 0.7142857142857143
      
        M 0.25  0.6 L 0.21428571428571427 0.5
      
        M 0.7857142857142857  0.2 L 0.7857142857142857 0.15000000000000002
      
        M 0.8  0.6428571428571428 L 0.85 0.6428571428571428
      
        M 0.2857142857142857  0.5 L 0.25 0.6
      
        M 0.95  0.6428571428571428 L 0.9 0.6428571428571428
      
        M 0.85  0.6428571428571428 L 0.85 0.5714285714285714
      
        M 0.6428571428571428  0.15000000000000002 L 0.5714285714285714 0.15000000000000002
      
        M 0.15000000000000002  0.2857142857142857 L 0.2 0.2857142857142857
      
        M 0.21428571428571427  0.8 L 0.21428571428571427 0.85
      
        M 0.7  0.7142857142857143 L 0.5 0.6428571428571428
      
        M 1.0  0.7142857142857143 L 0.95 0.6428571428571428
      
        M 0.8  0.7857142857142857 L 0.85 0.7857142857142857
      
        M 0.7857142857142857  0.0 L 0.7142857142857143 0.0
      
        M 0.35714285714285715  0.85 L 0.42857142857142855 0.85
      
        M 0.2  0.0 L 0.2 0.21428571428571427
      
        M 0.5  0.6428571428571428 L 0.5 0.7142857142857143
      
        M 0.5  0.14285714285714285 L 0.3 0.21428571428571427
      
        M 0.2  0.21428571428571427 L 0.15000000000000002 0.21428571428571427
      
        M 0.42857142857142855  0.85 L 0.42857142857142855 0.75
      
        M 0.6428571428571428  0.09999999999999998 L 0.7142857142857143 0.15000000000000002
      
        M 0.7857142857142857  0.5 L 0.8571428571428572 0.5
      
        M 0.7857142857142857  0.15000000000000002 L 0.8571428571428572 0.09999999999999998
      
        M 0.14285714285714285  0.9 L 0.14285714285714285 0.95
      
        M 0.5714285714285714  0.15000000000000002 L 0.5714285714285714 0.25
      
        M 0.75  0.4 L 0.7857142857142857 0.5
      
        M 0.85  0.5714285714285714 L 0.75 0.5714285714285714
      
        M 0.2857142857142857  1.0 L 0.35714285714285715 0.95
      
        M 0.15000000000000002  0.21428571428571427 L 0.09999999999999998 0.14285714285714285
      
        M 0.09999999999999998  0.35714285714285715 L 0.15000000000000002 0.2857142857142857
      
        M 0.04999999999999999  0.35714285714285715 L 0.09999999999999998 0.35714285714285715
      
        M 0.15000000000000002  0.35714285714285715 L 0.15000000000000002 0.42857142857142855
      
        M 0.9  0.8571428571428572 L 0.95 0.8571428571428572
      
        M 0.4  0.25 L 0.5 0.21428571428571427
      
        M 0.6428571428571428  0.04999999999999999 L 0.6428571428571428 0.09999999999999998
      
        M 0.21428571428571427  0.7 L 0.21428571428571427 0.75
      
        M 0.3  0.21428571428571427 L 0.25 0.21428571428571427
      
        M 0.95  0.8571428571428572 L 1.0 0.7857142857142857
      
        M 0.85  0.7142857142857143 L 0.8 0.7142857142857143
      
        M 0.35714285714285715  0.8 L 0.35714285714285715 0.85
      
        M 0.21428571428571427  0.5 L 0.14285714285714285 0.5
      
        M 0.8  0.7142857142857143 L 0.8 0.6428571428571428
      
        M 0.7857142857142857  0.25 L 1.0 0.25
      
        M 0.6  0.75 L 0.5 0.7857142857142857
      
        M 0.5  0.7142857142857143 L 0.6 0.75
      
        M 0.8571428571428572  0.04999999999999999 L 0.7857142857142857 0.0
      
        M 0.5  0.21428571428571427 L 0.5 0.14285714285714285
      
        M 0.2  0.2857142857142857 L 0.2 0.35714285714285715
      
        M 0.09999999999999998  0.14285714285714285 L 0.04999999999999999 0.14285714285714285
      
        M 0.5  0.8571428571428572 L 0.7 0.7857142857142857
      
        M 1.0  0.2 L 0.7857142857142857 0.2
      
        M 0.5  0.2857142857142857 L 0.4 0.25
      
        M 0.21428571428571427  0.75 L 0.0 0.75
      
        M 0.2857142857142857  0.85 L 0.2857142857142857 0.8
      
      " fill="none" stroke="black" stroke-width="0.001" transform="translate(0 500) scale(500 -500)" />
</svg>
