<?xml version="1.0" standalone="no"?>
<!DOCTYPE svg PUBLIC "-//W3C//DTD SVG 1.1//EN"
  "http://www.w3.org/Graphics/SVG/1.1/DTD/svg11.dtd">
<svg width="100%" height="100%" viewBox="0 0 500 500"
     xmlns="http://www.w3.org/2000/svg" version="1.1">
     <path d="
       M 0 0 L 1 0 L 1 1 L 0 1 z
      
        M 0.14285714285714285  0.5714285714285714 L 0.14285714285714285 0.9285714285714286
      
        M 0.14285714285714285  0.9285714285714286 L 0.35714285714285715 0.9285714285714286
      
        M 0.21428571428571427  0.5714285714285714 L 0.14285714285714285 0.5714285714285714
      
        M 0.21428571428571427  0.7142857142857143 L 0.21428571428571427 0.5714285714285714
      
        M 0.21428571428571427  0.7857142857142857 L 0.2857142857142857 0.7857142857142857
      
        M 0.21428571428571427  0.8571428571428572 L 0.21428571428571427 0.7857142857142857
      
        M 0.2857142857142857  0.07142857142857142 L 0.2857142857142857 0.42857142857142855
      
        M 0.2857142857142857  0.42857142857142855 L 0.7142857142857143 0.42857142857142855
      
        M 0.2857142857142857  0.7142857142857143 L 0.21428571428571427 0.7142857142857143
      
        M 0.2857142857142857  0.7857142857142857 L 0.2857142857142857 0.7142857142857143
      
        M 0.35714285714285715  0.8571428571428572 L 0.21428571428571427 0.8571428571428572
      
        M 0.35714285714285715  0.9285714285714286 L 0.35714285714285715 0.8571428571428572
      
        M 0.42857142857142855  0.07142857142857142 L 0.2857142857142857 0.07142857142857142
      
        M 0.42857142857142855  0.21428571428571427 L 0.42857142857142855 0.07142857142857142
      
        M 0.42857142857142855  0.2857142857142857 L 0.5714285714285714 0.2857142857142857
      
        M 0.42857142857142855  0.35714285714285715 L 0.42857142857142855 0.2857142857142857
      
        M 0.5714285714285714  0.21428571428571427 L 0.42857142857142855 0.21428571428571427
      
        M 0.5714285714285714  0.2857142857142857 L 0.5714285714285714 0.21428571428571427
      
        M 0.6428571428571428  0.5714285714285714 L 0.6428571428571428 0.9285714285714286
      
        M 0.6428571428571428  0.9285714285714286 L 0.8571428571428572 0.9285714285714286
      
        M 0.7142857142857143  0.35714285714285715 L 0.42857142857142855 0.35714285714285715
      
        M 0.7142857142857143  0.42857142857142855 L 0.7142857142857143 0.35714285714285715
      
        M 0.7142857142857143  0.5714285714285714 L 0.6428571428571428 0.5714285714285714
      
        M 0.7142857142857143  0.7142857142857143 L 0.7142857142857143 0.5714285714285714
      
        M 0.7142857142857143  0.7857142857142857 L 0.7857142857142857 0.7857142857142857
      
        M 0.7142857142857143  0.8571428571428572 L 0.7142857142857143 0.7857142857142857
      
        M 0.7857142857142857  0.7142857142857143 L 0.7142857142857143 0.7142857142857143
      
        M 0.7857142857142857  0.7857142857142857 L 0.7857142857142857 0.7142857142857143
      
        M 0.8571428571428572  0.8571428571428572 L 0.7142857142857143 0.8571428571428572
      
        M 0.8571428571428572  0.9285714285714286 L 0.8571428571428572 0.8571428571428572
      
      " fill="none" stroke="black" stroke-width="0.001" transform="translate(0 500) scale(500 -500)" />
</svg>
